<?xml version="1.0" encoding="UTF-8"?><svg id="black_horizontal_for_export" xmlns="http://www.w3.org/2000/svg" viewBox="0 0 1342 510"><defs><style>.cls-1,.cls-2,.cls-3{stroke:#000;stroke-miterlimit:10;}.cls-2{fill:#fff;stroke-width:2px;}.cls-3{font-family:FuturaBT-Book, 'Futura Bk BT';font-size:122.59px;letter-spacing:.25em;stroke-width:3px;}</style></defs><g><rect x="193.68" y="75.91" width="11.65" height="276.06" rx="5.83" ry="5.83" transform="translate(-80.29 128.59) rotate(-30.04)"/><g><path class="cls-1" d="M258.29,385.47c-.69-1.18-1.29-2.37-1.79-3.6,2.28,6.24,1.73,13.01-1.18,18.71,1.87,1.95,3.93,3.71,6.13,5.23,2.12-3.55,3.49-7.51,4.07-11.58-2.81-2.42-5.25-5.36-7.23-8.75Zm-4.48-20.16c-3.3-2.61-7.04-4.46-11-5.56-5.58-1.54-11.64-1.51-17.36,.28-2.23,.66-4.43,1.6-6.52,2.81-1.6,.94-3.08,1.98-4.46,3.16,.44,6.57-1.02,13.34-4.57,19.48-1.76,3.05-3.93,5.72-6.41,8,.47,4.07,1.76,8.11,3.91,11.88,2.2-1.6,4.24-3.38,6.08-5.39-5.2-10.89-1.21-24.15,9.38-30.31,1.07-.63,2.2-1.16,3.33-1.57,5.17-2.01,10.78-2.04,15.84-.33,5.2,1.76,9.82,5.34,12.76,10.45,.44,.77,.83,1.54,1.16,2.34-1.93-4.95-2.59-10.18-2.15-15.24Z"/><path class="cls-1" d="M328.13,345.08c-11.66-20.19-36.39-28.22-57.41-19.61-1.93,.77-3.82,1.68-5.67,2.75-1.57,.91-3.05,1.9-4.48,2.97-9.55,7.07-15.71,17.41-17.77,28.55-.5,2.64-.77,5.31-.77,8-.11,8,1.9,16.12,6.19,23.55,1.98,3.44,4.37,6.55,7.1,9.27,1.87,1.95,3.93,3.71,6.13,5.23,14.28,10.12,33.72,11.66,49.82,2.34,22.03-12.74,29.6-41.01,16.86-63.05Zm-22.69,52.98c-13.07,7.56-29.08,5.53-39.91-3.85-2.81-2.42-5.25-5.36-7.23-8.75-.69-1.18-1.29-2.37-1.79-3.6-.22-.44-.39-.88-.55-1.32-1.93-4.95-2.59-10.18-2.15-15.24,.94-10.87,6.96-21.13,17.08-26.99,16.48-9.52,37.63-3.88,47.15,12.6,9.52,16.48,3.88,37.63-12.6,47.15Z"/><rect x="200.26" y="245.82" width="45.71" height="19.72" rx="9.86" ry="9.86" transform="translate(-98.01 146.01) rotate(-30.04)"/><path d="M140.42,140.37l-16.26-28.09c-2.92-5.03-10.01-6.16-16.17-2.61l-11.91,6.9c-2.81,1.6-3.74,5.17-2.15,7.95,1.62,2.78,5.17,3.74,7.98,2.12l11.91-6.88c.36-.22,.72-.33,.96-.41l14.83,25.61c-.19,.22-.47,.44-.85,.66l-11.91,6.88c-2.78,1.62-3.74,5.17-2.12,7.95,1.62,2.81,5.17,3.74,7.95,2.15l11.91-6.9c6.19-3.55,8.72-10.29,5.83-15.32Z"/><rect x="130.68" y="208.11" width="276.06" height="11.65" rx="5.83" ry="5.83" transform="translate(-51 339.47) rotate(-59.96)"/><path class="cls-1" d="M225.44,360.02c-2.04-11.25-8.2-21.68-17.83-28.83-1.43-1.07-2.92-2.06-4.48-2.97-1.84-1.07-3.71-1.98-5.64-2.75-21.02-8.61-45.75-.58-57.41,19.61-12.74,22.03-5.2,50.31,16.83,63.05,16.34,9.46,36.15,7.76,50.48-2.78,2.2-1.6,4.24-3.38,6.08-5.39,2.5-2.56,4.68-5.47,6.52-8.67,4.24-7.32,6.22-15.32,6.19-23.22,0-2.72-.28-5.42-.74-8.06Zm-21.95,33.45c-10.81,10.01-27.32,12.35-40.74,4.59-16.45-9.52-22.12-30.67-12.6-47.15,9.55-16.48,30.67-22.12,47.15-12.6,10.37,5.97,16.45,16.53,17.16,27.67,.44,6.57-1.02,13.34-4.57,19.48-1.76,3.05-3.93,5.72-6.41,8Z"/><rect x="235.23" y="232.82" width="19.72" height="45.71" rx="9.86" ry="9.86" transform="translate(-98.93 339.88) rotate(-59.96)"/><path d="M372.14,116.58l-11.91-6.9c-6.16-3.55-13.29-2.42-16.17,2.61l-16.26,28.09c-2.92,5.03-.36,11.77,5.8,15.32l11.91,6.9c2.81,1.6,6.35,.66,7.98-2.15,1.6-2.78,.66-6.33-2.15-7.95l-11.91-6.88c-.36-.22-.63-.44-.83-.66l14.8-25.61c.28,.08,.61,.19,.99,.41l11.91,6.88c2.78,1.62,6.35,.66,7.95-2.12,1.62-2.78,.66-6.35-2.12-7.95Z"/><line class="cls-2" x1="201.79" y1="334.68" x2="159.19" y2="401"/><line class="cls-2" x1="309.63" y1="334.68" x2="267.03" y2="401"/><line class="cls-2" x1="279.67" y1="329.22" x2="296.45" y2="406.24"/><line class="cls-2" x1="254.63" y1="346.54" x2="320.95" y2="389.14"/><line class="cls-2" x1="249.17" y1="376.5" x2="326.19" y2="359.72"/><line class="cls-2" x1="172.1" y1="329.33" x2="188.88" y2="406.35"/><line class="cls-2" x1="147.33" y1="346.54" x2="213.65" y2="389.14"/><line class="cls-2" x1="141.98" y1="376.23" x2="219" y2="359.45"/><rect x="231.45" y="257.58" width="4.31" height="5.93"/></g></g><text class="cls-3" transform="translate(449.29 291.84)"><tspan x="0" y="0">THE SUITE</tspan></text></svg>